<mxGraphModel><root><mxCell id="0"/><mxCell id="1" parent="0"/><mxCell id="2" value="Начало" style="whiteSpace=wrap;strokeWidth=2;" vertex="1" parent="1"><mxGeometry x="169" y="8" width="116" height="54" as="geometry"/></mxCell><mxCell id="3" value="Инициализация массива" style="whiteSpace=wrap;strokeWidth=2;" vertex="1" parent="1"><mxGeometry x="104" y="112" width="244" height="54" as="geometry"/></mxCell><mxCell id="4" value="Массив не отсортирован?" style="rhombus;strokeWidth=2;whiteSpace=wrap;" vertex="1" parent="1"><mxGeometry x="103" y="216" width="247" height="247" as="geometry"/></mxCell><mxCell id="5" value="Разделить массив на две части" style="whiteSpace=wrap;strokeWidth=2;" vertex="1" parent="1"><mxGeometry x="8" y="534" width="260" height="78" as="geometry"/></mxCell><mxCell id="6" value="Сортировка первой половины" style="whiteSpace=wrap;strokeWidth=2;" vertex="1" parent="1"><mxGeometry x="8" y="662" width="260" height="78" as="geometry"/></mxCell><mxCell id="7" value="Сортировка второй половины" style="whiteSpace=wrap;strokeWidth=2;" vertex="1" parent="1"><mxGeometry x="8" y="790" width="260" height="78" as="geometry"/></mxCell><mxCell id="8" value="Объединить отсортированные половины" style="whiteSpace=wrap;strokeWidth=2;" vertex="1" parent="1"><mxGeometry x="8" y="918" width="260" height="102" as="geometry"/></mxCell><mxCell id="9" value="Распределение значений в позиции" style="whiteSpace=wrap;strokeWidth=2;" vertex="1" parent="1"><mxGeometry x="8" y="1070" width="260" height="78" as="geometry"/></mxCell><mxCell id="10" value="Нужно ли повторно проходить?" style="rhombus;strokeWidth=2;whiteSpace=wrap;" vertex="1" parent="1"><mxGeometry x="87" y="1198" width="278" height="278" as="geometry"/></mxCell><mxCell id="11" value="Конец" style="whiteSpace=wrap;strokeWidth=2;" vertex="1" parent="1"><mxGeometry x="174" y="1547" width="105" height="54" as="geometry"/></mxCell><mxCell id="12" value="" style="curved=1;startArrow=none;endArrow=block;exitX=0.5;exitY=1;entryX=0.5;entryY=0;" edge="1" parent="1" source="2" target="3"><mxGeometry relative="1" as="geometry"><Array as="points"/></mxGeometry></mxCell><mxCell id="13" value="" style="curved=1;startArrow=none;endArrow=block;exitX=0.5;exitY=1;entryX=0.5;entryY=0;" edge="1" parent="1" source="3" target="4"><mxGeometry relative="1" as="geometry"><Array as="points"/></mxGeometry></mxCell><mxCell id="14" value="Да" style="curved=1;startArrow=none;endArrow=block;exitX=0.22;exitY=1;entryX=0.5;entryY=0;" edge="1" parent="1" source="4" target="5"><mxGeometry relative="1" as="geometry"><Array as="points"><mxPoint x="138" y="498"/></Array></mxGeometry></mxCell><mxCell id="15" value="" style="curved=1;startArrow=none;endArrow=block;exitX=0.5;exitY=1;entryX=0.5;entryY=0;" edge="1" parent="1" source="5" target="6"><mxGeometry relative="1" as="geometry"><Array as="points"/></mxGeometry></mxCell><mxCell id="16" value="" style="curved=1;startArrow=none;endArrow=block;exitX=0.5;exitY=1;entryX=0.5;entryY=0;" edge="1" parent="1" source="6" target="7"><mxGeometry relative="1" as="geometry"><Array as="points"/></mxGeometry></mxCell><mxCell id="17" value="" style="curved=1;startArrow=none;endArrow=block;exitX=0.5;exitY=1;entryX=0.5;entryY=0;" edge="1" parent="1" source="7" target="8"><mxGeometry relative="1" as="geometry"><Array as="points"/></mxGeometry></mxCell><mxCell id="18" value="" style="curved=1;startArrow=none;endArrow=block;exitX=0.5;exitY=1;entryX=0.5;entryY=0;" edge="1" parent="1" source="8" target="9"><mxGeometry relative="1" as="geometry"><Array as="points"/></mxGeometry></mxCell><mxCell id="19" value="" style="curved=1;startArrow=none;endArrow=block;exitX=0.5;exitY=1;entryX=0.23;entryY=0;" edge="1" parent="1" source="9" target="10"><mxGeometry relative="1" as="geometry"><Array as="points"><mxPoint x="138" y="1173"/></Array></mxGeometry></mxCell><mxCell id="20" value="Да" style="curved=1;startArrow=none;endArrow=block;exitX=0.77;exitY=0;entryX=0.78;entryY=1;" edge="1" parent="1" source="10" target="4"><mxGeometry relative="1" as="geometry"><Array as="points"><mxPoint x="315" y="1173"/><mxPoint x="315" y="498"/></Array></mxGeometry></mxCell><mxCell id="21" value="Нет" style="curved=1;startArrow=none;endArrow=block;exitX=0.5;exitY=1;entryX=0.5;entryY=0;" edge="1" parent="1" source="10" target="11"><mxGeometry relative="1" as="geometry"><Array as="points"/></mxGeometry></mxCell></root></mxGraphModel>